<svg width="1400" height="1000" viewBox="0 0 1400 1000" fill="none" xmlns="http://www.w3.org/2000/svg">
  <rect width="1400" height="1000" fill="#05080D"/>
  <rect width="1400" height="1000" fill="url(#bg)"/>
  <ellipse cx="1084" cy="220" rx="220" ry="140" fill="#FF7A18" fill-opacity="0.18"/>
  <rect x="184" y="158" width="1032" height="652" rx="32" fill="#0A1018" stroke="rgba(255,255,255,0.12)"/>
  <rect x="270" y="260" width="318" height="430" rx="28" fill="#101722"/>
  <rect x="324" y="330" width="210" height="272" rx="26" fill="#141E2C" stroke="rgba(255,255,255,0.1)"/>
  <path d="M430 368C430 318 468 280 520 280C572 280 610 318 610 368C610 450 520 484 520 564C520 484 430 450 430 368Z" fill="#FF7A18" fill-opacity="0.9"/>
  <rect x="654" y="280" width="458" height="152" rx="24" fill="#111926"/>
  <rect x="654" y="468" width="458" height="222" rx="24" fill="#0F1620"/>
  <path d="M710 356H1056" stroke="#FF7A18" stroke-width="6" stroke-linecap="round"/>
  <path d="M710 532H1056" stroke="rgba(255,255,255,0.12)" stroke-width="2"/>
  <path d="M710 584H1056" stroke="rgba(255,255,255,0.12)" stroke-width="2"/>
  <path d="M710 636H940" stroke="rgba(255,177,95,0.36)" stroke-width="4" stroke-linecap="round"/>
  <circle cx="1042" cy="628" r="42" fill="#101722" stroke="#FF7A18" stroke-width="6"/>
  <text x="236" y="230" fill="#FFFFFF" font-family="Arial, sans-serif" font-size="42">CNG CONVERSION</text>
  <text x="236" y="274" fill="#96A4BC" font-family="Arial, sans-serif" font-size="22" letter-spacing="4">INTEGRATION, CALIBRATION, SAFETY</text>
  <defs>
    <linearGradient id="bg" x1="700" y1="0" x2="700" y2="1000" gradientUnits="userSpaceOnUse">
      <stop stop-color="#0A0E15"/>
      <stop offset="1" stop-color="#04060A"/>
    </linearGradient>
  </defs>
</svg>