<svg width="1600" height="1200" viewBox="0 0 1600 1200" fill="none" xmlns="http://www.w3.org/2000/svg">
  <rect width="1600" height="1200" fill="#08101A"/>
  <rect width="1600" height="1200" fill="url(#bg)"/>
  <circle cx="1288" cy="236" r="214" fill="url(#glow)"/>
  <circle cx="300" cy="928" r="260" fill="url(#glow2)"/>
  <rect x="126" y="116" width="292" height="116" rx="28" fill="#0C1A2B" stroke="#2D4B6A"/>
  <text x="178" y="190" fill="#FFB067" font-family="Arial, sans-serif" font-size="54" font-weight="700" letter-spacing="10">BLOG</text>
  <text x="124" y="330" fill="#EDF5FF" font-family="Arial, sans-serif" font-size="104" font-weight="700">Guides</text>
  <text x="124" y="422" fill="#EDF5FF" font-family="Arial, sans-serif" font-size="104" font-weight="700">Insights</text>
  <text x="124" y="514" fill="#EDF5FF" font-family="Arial, sans-serif" font-size="104" font-weight="700">Workshop stories</text>
  <rect x="932" y="264" width="338" height="214" rx="28" fill="#0F1C2E" stroke="#355673" stroke-width="10"/>
  <rect x="984" y="318" width="234" height="18" rx="9" fill="#DCEBFA" fill-opacity="0.95"/>
  <rect x="984" y="368" width="196" height="18" rx="9" fill="#88A5C3"/>
  <rect x="984" y="418" width="166" height="18" rx="9" fill="#88A5C3"/>
  <rect x="1010" y="602" width="204" height="264" rx="26" fill="#122235" stroke="#375978"/>
  <rect x="884" y="548" width="204" height="264" rx="26" fill="#FF7A18" fill-opacity="0.92"/>
  <rect x="1136" y="548" width="204" height="264" rx="26" fill="#19304B" stroke="#4E6F8E"/>
  <g opacity="0.24" stroke="#26425E">
    <path d="M0 180H1600"/>
    <path d="M0 420H1600"/>
    <path d="M0 660H1600"/>
    <path d="M0 900H1600"/>
    <path d="M320 0V1200"/>
    <path d="M720 0V1200"/>
    <path d="M1120 0V1200"/>
    <path d="M1520 0V1200"/>
  </g>
  <defs>
    <linearGradient id="bg" x1="154" y1="100" x2="1410" y2="1090" gradientUnits="userSpaceOnUse">
      <stop stop-color="#0A1524"/>
      <stop offset="0.58" stop-color="#0E1B2D"/>
      <stop offset="1" stop-color="#18263B"/>
    </linearGradient>
    <radialGradient id="glow" cx="0" cy="0" r="1" gradientUnits="userSpaceOnUse" gradientTransform="translate(1288 236) rotate(90) scale(214)">
      <stop stop-color="#FF7A18" stop-opacity="0.34"/>
      <stop offset="1" stop-color="#FF7A18" stop-opacity="0"/>
    </radialGradient>
    <radialGradient id="glow2" cx="0" cy="0" r="1" gradientUnits="userSpaceOnUse" gradientTransform="translate(300 928) rotate(90) scale(260)">
      <stop stop-color="#79C3FF" stop-opacity="0.22"/>
      <stop offset="1" stop-color="#79C3FF" stop-opacity="0"/>
    </radialGradient>
  </defs>
</svg>
