<svg width="1600" height="1200" viewBox="0 0 1600 1200" fill="none" xmlns="http://www.w3.org/2000/svg">
  <rect width="1600" height="1200" fill="#09111C"/>
  <rect width="1600" height="1200" fill="url(#bg)"/>
  <circle cx="1280" cy="220" r="220" fill="url(#glow)"/>
  <circle cx="290" cy="920" r="250" fill="url(#glow2)"/>
  <rect x="126" y="116" width="362" height="116" rx="28" fill="#0C1A2B" stroke="#2D4B6A"/>
  <text x="174" y="190" fill="#FFB067" font-family="Arial, sans-serif" font-size="54" font-weight="700" letter-spacing="10">BOOKING</text>
  <text x="124" y="330" fill="#EFF6FF" font-family="Arial, sans-serif" font-size="104" font-weight="700">Reserve visits</text>
  <text x="124" y="422" fill="#EFF6FF" font-family="Arial, sans-serif" font-size="104" font-weight="700">Plan inspections</text>
  <text x="124" y="514" fill="#EFF6FF" font-family="Arial, sans-serif" font-size="104" font-weight="700">Manage arrivals</text>
  <rect x="910" y="248" width="420" height="510" rx="34" fill="#0F1C2E" stroke="#33536F" stroke-width="10"/>
  <rect x="968" y="192" width="80" height="98" rx="22" fill="#FF7A18"/>
  <rect x="1190" y="192" width="80" height="98" rx="22" fill="#FF7A18"/>
  <rect x="964" y="334" width="314" height="70" rx="20" fill="#15273E"/>
  <rect x="964" y="444" width="146" height="126" rx="20" fill="#FF7A18"/>
  <rect x="1132" y="444" width="146" height="126" rx="20" fill="#132436"/>
  <rect x="964" y="594" width="146" height="126" rx="20" fill="#132436"/>
  <rect x="1132" y="594" width="146" height="126" rx="20" fill="#132436"/>
  <path d="M1020 478H1052L1068 512L1096 470" stroke="#111827" stroke-width="14" stroke-linecap="round" stroke-linejoin="round"/>
  <path d="M992 842H1290" stroke="#5E7D9B" stroke-width="12" stroke-linecap="round" stroke-dasharray="12 16"/>
  <g opacity="0.25" stroke="#26425E">
    <path d="M0 180H1600"/>
    <path d="M0 420H1600"/>
    <path d="M0 660H1600"/>
    <path d="M0 900H1600"/>
    <path d="M300 0V1200"/>
    <path d="M700 0V1200"/>
    <path d="M1100 0V1200"/>
    <path d="M1500 0V1200"/>
  </g>
  <defs>
    <linearGradient id="bg" x1="160" y1="120" x2="1400" y2="1090" gradientUnits="userSpaceOnUse">
      <stop stop-color="#0A1524"/>
      <stop offset="0.56" stop-color="#0E1B2D"/>
      <stop offset="1" stop-color="#18263B"/>
    </linearGradient>
    <radialGradient id="glow" cx="0" cy="0" r="1" gradientUnits="userSpaceOnUse" gradientTransform="translate(1280 220) rotate(90) scale(220)">
      <stop stop-color="#FF7A18" stop-opacity="0.38"/>
      <stop offset="1" stop-color="#FF7A18" stop-opacity="0"/>
    </radialGradient>
    <radialGradient id="glow2" cx="0" cy="0" r="1" gradientUnits="userSpaceOnUse" gradientTransform="translate(290 920) rotate(90) scale(250)">
      <stop stop-color="#79C0FF" stop-opacity="0.25"/>
      <stop offset="1" stop-color="#79C0FF" stop-opacity="0"/>
    </radialGradient>
  </defs>
</svg>
