<svg width="1600" height="1200" viewBox="0 0 1600 1200" fill="none" xmlns="http://www.w3.org/2000/svg">
  <rect width="1600" height="1200" fill="#07101E"/>
  <rect width="1600" height="1200" fill="url(#bg)"/>
  <g opacity="0.3" stroke="#24415F">
    <path d="M0 160H1600"/>
    <path d="M0 360H1600"/>
    <path d="M0 560H1600"/>
    <path d="M0 760H1600"/>
    <path d="M0 960H1600"/>
    <path d="M220 0V1200"/>
    <path d="M520 0V1200"/>
    <path d="M820 0V1200"/>
    <path d="M1120 0V1200"/>
    <path d="M1420 0V1200"/>
  </g>
  <circle cx="1250" cy="210" r="210" fill="url(#glow)"/>
  <circle cx="310" cy="930" r="260" fill="url(#glow2)"/>
  <rect x="120" y="120" width="340" height="116" rx="28" fill="#0C1A2B" stroke="#2D4B6A"/>
  <text x="170" y="192" fill="#FFB067" font-family="Arial, sans-serif" font-size="54" font-weight="700" letter-spacing="10">SERVICE</text>
  <text x="124" y="314" fill="#D9E6F2" font-family="Arial, sans-serif" font-size="100" font-weight="700">Diagnostics</text>
  <text x="124" y="404" fill="#D9E6F2" font-family="Arial, sans-serif" font-size="100" font-weight="700">Electrical Repair</text>
  <text x="124" y="494" fill="#D9E6F2" font-family="Arial, sans-serif" font-size="100" font-weight="700">Engineering Care</text>
  <path d="M166 700H544L620 572H935L1020 700H1292C1348 700 1396 738 1410 792L1440 900H1362C1344 962 1288 1008 1220 1008C1152 1008 1096 962 1078 900H622C604 962 548 1008 480 1008C412 1008 356 962 338 900H160L188 794C202 740 250 700 306 700H166Z" fill="#0E1D31" stroke="#90A7C1" stroke-width="14"/>
  <circle cx="480" cy="900" r="88" fill="#0B1422" stroke="#D5E3F4" stroke-width="14"/>
  <circle cx="1220" cy="900" r="88" fill="#0B1422" stroke="#D5E3F4" stroke-width="14"/>
  <path d="M768 690H1164" stroke="#FF7A18" stroke-width="18" stroke-linecap="round"/>
  <path d="M736 768H1164" stroke="#6AC3FF" stroke-width="10" stroke-linecap="round" stroke-dasharray="16 18"/>
  <rect x="988" y="286" width="360" height="188" rx="28" fill="#0C1828" stroke="#2C4B6A"/>
  <path d="M1038 392H1102L1144 342L1196 438L1256 330L1312 392" stroke="#FFB067" stroke-width="14" stroke-linecap="round" stroke-linejoin="round"/>
  <path d="M1038 434H1294" stroke="#4D6B8A" stroke-width="8" stroke-linecap="round"/>
  <defs>
    <linearGradient id="bg" x1="154" y1="92" x2="1396" y2="1096" gradientUnits="userSpaceOnUse">
      <stop stop-color="#0A1526"/>
      <stop offset="0.58" stop-color="#0D1B2E"/>
      <stop offset="1" stop-color="#16263D"/>
    </linearGradient>
    <radialGradient id="glow" cx="0" cy="0" r="1" gradientUnits="userSpaceOnUse" gradientTransform="translate(1250 210) rotate(90) scale(210)">
      <stop stop-color="#FF7A18" stop-opacity="0.42"/>
      <stop offset="1" stop-color="#FF7A18" stop-opacity="0"/>
    </radialGradient>
    <radialGradient id="glow2" cx="0" cy="0" r="1" gradientUnits="userSpaceOnUse" gradientTransform="translate(310 930) rotate(90) scale(260)">
      <stop stop-color="#2A77C8" stop-opacity="0.36"/>
      <stop offset="1" stop-color="#2A77C8" stop-opacity="0"/>
    </radialGradient>
  </defs>
</svg>
